# Vectary OBJ Export units=mm
mtllib Sala Branca-cirurgia.mtl
o 000_Box_8
g Box_8
usemtl Noise Glossy
v 99.823 50.000 -29.276
v 97.823 50.000 -69.276
v 99.823 50.000 -69.276
v 97.823 50.000 -29.276
v 97.823 100.000 -29.276
v 97.823 100.000 -69.276
v 99.823 100.000 -29.276
v 99.823 100.000 -69.276
vt 0.00000 0.00000
vt 1.00000 1.00000
vt 0.00000 1.00000
vt 1.00000 0.00000
vt 0.00000 0.00000
vt 1.00000 1.00000
vt 0.00000 1.00000
vt 1.00000 0.00000
vt 0.00000 0.00000
vt 1.00000 1.00000
vt 0.00000 1.00000
vt 1.00000 0.00000
vt 0.00000 0.00000
vt 1.00000 1.00000
vt 0.00000 1.00000
vt 1.00000 0.00000
vt 0.00000 0.00000
vt 1.00000 1.00000
vt 0.00000 1.00000
vt 1.00000 0.00000
vt 0.00000 0.00000
vt 1.00000 1.00000
vt 0.00000 1.00000
vt 1.00000 0.00000
vn 0.00000 -1.00000 -0.00000
vn 0.00000 -1.00000 -0.00000
vn 0.00000 -1.00000 -0.00000
vn 0.00000 -1.00000 -0.00000
vn -1.00000 0.00000 0.00000
vn -1.00000 0.00000 0.00000
vn -1.00000 0.00000 0.00000
vn -1.00000 0.00000 0.00000
vn 0.00000 -0.00000 1.00000
vn 0.00000 -0.00000 1.00000
vn 0.00000 -0.00000 1.00000
vn 0.00000 -0.00000 1.00000
vn 0.00000 0.00000 -1.00000
vn 0.00000 0.00000 -1.00000
vn 0.00000 0.00000 -1.00000
vn 0.00000 0.00000 -1.00000
vn 1.00000 0.00000 0.00000
vn 1.00000 0.00000 0.00000
vn 1.00000 0.00000 0.00000
vn 1.00000 0.00000 0.00000
vn 0.00000 1.00000 0.00000
vn 0.00000 1.00000 0.00000
vn 0.00000 1.00000 0.00000
vn 0.00000 1.00000 0.00000
f 2/2/2 3/3/3 1/1/1 4/4/4 
f 5/6/6 6/7/7 2/5/5 4/8/8 
f 7/10/10 5/11/11 4/9/9 1/12/12 
f 6/14/14 8/15/15 3/13/13 2/16/16 
f 8/18/18 7/19/19 1/17/17 3/20/20 
f 8/22/22 6/23/23 5/21/21 7/24/24 
o 001_Box_7
g Box_7
usemtl Wood 2
v 100.707 0.000 -30.257
v 118.241 0.000 -39.929
v 118.680 0.000 -39.031
v 100.268 0.000 -31.156
v 100.268 50.000 -31.156
v 118.241 50.000 -39.929
v 100.707 50.000 -30.257
v 118.680 50.000 -39.031
vt 0.00000 0.00000
vt 1.00000 1.00000
vt 0.00000 1.00000
vt 1.00000 0.00000
vt 0.00000 0.00000
vt 1.00000 1.00000
vt 0.00000 1.00000
vt 1.00000 0.00000
vt 0.00000 0.00000
vt 1.00000 1.00000
vt 0.00000 1.00000
vt 1.00000 0.00000
vt 0.00000 0.00000
vt 1.00000 1.00000
vt 0.00000 1.00000
vt 1.00000 0.00000
vt 0.00000 0.00000
vt 1.00000 1.00000
vt 0.00000 1.00000
vt 1.00000 0.00000
vt 0.00000 0.00000
vt 1.00000 1.00000
vt 0.00000 1.00000
vt 1.00000 0.00000
vn -0.00000 -1.00000 -0.00000
vn -0.00000 -1.00000 -0.00000
vn -0.00000 -1.00000 -0.00000
vn -0.00000 -1.00000 -0.00000
vn -0.43866 0.00000 -0.89865
vn -0.43866 0.00000 -0.89865
vn -0.43866 0.00000 -0.89865
vn -0.43866 0.00000 -0.89865
vn -0.89865 -0.00000 0.43866
vn -0.89865 -0.00000 0.43866
vn -0.89865 -0.00000 0.43866
vn -0.89865 -0.00000 0.43866
vn 0.89865 0.00000 -0.43866
vn 0.89865 0.00000 -0.43866
vn 0.89865 0.00000 -0.43866
vn 0.89865 0.00000 -0.43866
vn 0.43866 -0.00000 0.89865
vn 0.43866 -0.00000 0.89865
vn 0.43866 -0.00000 0.89865
vn 0.43866 -0.00000 0.89865
vn 0.00000 1.00000 0.00000
vn 0.00000 1.00000 0.00000
vn 0.00000 1.00000 0.00000
vn 0.00000 1.00000 0.00000
f 10/26/26 11/27/27 9/25/25 12/28/28 
f 13/30/30 14/31/31 10/29/29 12/32/32 
f 15/34/34 13/35/35 12/33/33 9/36/36 
f 14/38/38 16/39/39 11/37/37 10/40/40 
f 16/42/42 15/43/43 9/41/41 11/44/44 
f 16/46/46 14/47/47 13/45/45 15/48/48 
o 002_Box_6
g Box_6
usemtl Wood
v 116.847 0.000 -58.645
v 99.694 0.000 -68.979
v 100.253 0.000 -69.809
v 116.289 0.000 -57.815
v 116.289 50.000 -57.815
v 99.694 50.000 -68.979
v 116.847 50.000 -58.645
v 100.253 50.000 -69.809
vt 0.00000 0.00000
vt 1.00000 1.00000
vt 0.00000 1.00000
vt 1.00000 0.00000
vt 0.00000 0.00000
vt 1.00000 1.00000
vt 0.00000 1.00000
vt 1.00000 0.00000
vt 0.00000 0.00000
vt 1.00000 1.00000
vt 0.00000 1.00000
vt 1.00000 0.00000
vt 0.00000 0.00000
vt 1.00000 1.00000
vt 0.00000 1.00000
vt 1.00000 0.00000
vt 0.00000 0.00000
vt 1.00000 1.00000
vt 0.00000 1.00000
vt 1.00000 0.00000
vt 0.00000 0.00000
vt 1.00000 1.00000
vt 0.00000 1.00000
vt 1.00000 0.00000
vn -0.00000 -1.00000 -0.00000
vn -0.00000 -1.00000 -0.00000
vn -0.00000 -1.00000 -0.00000
vn -0.00000 -1.00000 -0.00000
vn -0.55818 -0.00000 0.82972
vn -0.55818 -0.00000 0.82972
vn -0.55818 -0.00000 0.82972
vn -0.55818 -0.00000 0.82972
vn 0.82972 -0.00000 0.55818
vn 0.82972 -0.00000 0.55818
vn 0.82972 -0.00000 0.55818
vn 0.82972 -0.00000 0.55818
vn -0.82972 0.00000 -0.55818
vn -0.82972 0.00000 -0.55818
vn -0.82972 0.00000 -0.55818
vn -0.82972 0.00000 -0.55818
vn 0.55818 0.00000 -0.82972
vn 0.55818 0.00000 -0.82972
vn 0.55818 0.00000 -0.82972
vn 0.55818 0.00000 -0.82972
vn 0.00000 1.00000 0.00000
vn 0.00000 1.00000 0.00000
vn 0.00000 1.00000 0.00000
vn 0.00000 1.00000 0.00000
f 18/50/50 19/51/51 17/49/49 20/52/52 
f 21/54/54 22/55/55 18/53/53 20/56/56 
f 23/58/58 21/59/59 20/57/57 17/60/60 
f 22/62/62 24/63/63 19/61/61 18/64/64 
f 24/66/66 23/67/67 17/65/65 19/68/68 
f 24/70/70 22/71/71 21/69/69 23/72/72 
o 003_Box_5
g Box_5
usemtl Noise Glossy 2
v 100.165 0.000 -69.378
v 99.165 0.000 -99.378
v 100.165 0.000 -99.378
v 99.165 0.000 -69.378
v 99.165 100.000 -69.378
v 99.165 100.000 -99.378
v 100.165 100.000 -69.378
v 100.165 100.000 -99.378
vt 0.00000 0.00000
vt 1.00000 1.00000
vt 0.00000 1.00000
vt 1.00000 0.00000
vt 0.00000 0.00000
vt 1.00000 1.00000
vt 0.00000 1.00000
vt 1.00000 0.00000
vt 0.00000 0.00000
vt 1.00000 1.00000
vt 0.00000 1.00000
vt 1.00000 0.00000
vt 0.00000 0.00000
vt 1.00000 1.00000
vt 0.00000 1.00000
vt 1.00000 0.00000
vt 0.00000 0.00000
vt 1.00000 1.00000
vt 0.00000 1.00000
vt 1.00000 0.00000
vt 0.00000 0.00000
vt 1.00000 1.00000
vt 0.00000 1.00000
vt 1.00000 0.00000
vn 0.00000 -1.00000 -0.00000
vn 0.00000 -1.00000 -0.00000
vn 0.00000 -1.00000 -0.00000
vn 0.00000 -1.00000 -0.00000
vn -1.00000 0.00000 0.00000
vn -1.00000 0.00000 0.00000
vn -1.00000 0.00000 0.00000
vn -1.00000 0.00000 0.00000
vn 0.00000 -0.00000 1.00000
vn 0.00000 -0.00000 1.00000
vn 0.00000 -0.00000 1.00000
vn 0.00000 -0.00000 1.00000
vn 0.00000 0.00000 -1.00000
vn 0.00000 0.00000 -1.00000
vn 0.00000 0.00000 -1.00000
vn 0.00000 0.00000 -1.00000
vn 1.00000 0.00000 0.00000
vn 1.00000 0.00000 0.00000
vn 1.00000 0.00000 0.00000
vn 1.00000 0.00000 0.00000
vn 0.00000 1.00000 0.00000
vn 0.00000 1.00000 0.00000
vn 0.00000 1.00000 0.00000
vn 0.00000 1.00000 0.00000
f 26/74/74 27/75/75 25/73/73 28/76/76 
f 29/78/78 30/79/79 26/77/77 28/80/80 
f 31/82/82 29/83/83 28/81/81 25/84/84 
f 30/86/86 32/87/87 27/85/85 26/88/88 
f 32/90/90 31/91/91 25/89/89 27/92/92 
f 32/94/94 30/95/95 29/93/93 31/96/96 
o 004_Box_4
g Box_4
usemtl Noise Glossy 1
v 100.165 -0.000 -0.012
v 99.165 0.000 -30.012
v 100.165 0.000 -30.012
v 99.165 -0.000 -0.012
v 99.165 100.000 -0.012
v 99.165 100.000 -30.012
v 100.165 100.000 -0.012
v 100.165 100.000 -30.012
vt 0.51634 0.00980
vt 0.48366 0.99020
vt 0.51634 0.99020
vt 0.48366 0.00980
vt 0.48366 0.00980
vt 0.48366 0.99020
vt 0.51634 0.00980
vt 0.51634 0.99020
vn 0.00000 -1.00000 -0.00000
vn 0.00000 -1.00000 -0.00000
vn 0.00000 -1.00000 -0.00000
vn 0.00000 -1.00000 -0.00000
vn -1.00000 0.00000 0.00000
vn -1.00000 0.00000 0.00000
vn -1.00000 0.00000 0.00000
vn -1.00000 0.00000 0.00000
vn 0.00000 -0.00000 1.00000
vn 0.00000 -0.00000 1.00000
vn 0.00000 -0.00000 1.00000
vn 0.00000 -0.00000 1.00000
vn 0.00000 0.00000 -1.00000
vn 0.00000 0.00000 -1.00000
vn 0.00000 0.00000 -1.00000
vn 0.00000 0.00000 -1.00000
vn 1.00000 0.00000 0.00000
vn 1.00000 0.00000 0.00000
vn 1.00000 0.00000 0.00000
vn 1.00000 0.00000 0.00000
vn 0.00000 1.00000 0.00000
vn 0.00000 1.00000 0.00000
vn 0.00000 1.00000 0.00000
vn 0.00000 1.00000 0.00000
f 34/98/98 35/99/99 33/97/97 36/100/100 
f 37/101/102 38/102/103 34/98/101 36/100/104 
f 39/103/106 37/101/107 36/100/105 33/97/108 
f 38/102/110 40/104/111 35/99/109 34/98/112 
f 40/104/114 39/103/115 33/97/113 35/99/116 
f 40/104/118 38/102/119 37/101/117 39/103/120 
o 005_Box_3
g Box_3
usemtl Noise Glossy 7
v 100.365 0.000 -99.069
v 0.365 0.000 -100.069
v 100.365 0.000 -100.069
v 0.365 0.000 -99.069
v 0.365 100.000 -99.069
v 0.365 100.000 -100.069
v 100.365 100.000 -99.069
v 100.365 100.000 -100.069
vt 0.00000 0.00000
vt 1.00000 1.00000
vt 0.00000 1.00000
vt 1.00000 0.00000
vt 0.00000 0.00000
vt 1.00000 1.00000
vt 0.00000 1.00000
vt 1.00000 0.00000
vt 0.00000 0.00000
vt 1.00000 1.00000
vt 0.00000 1.00000
vt 1.00000 0.00000
vt 0.00000 0.00000
vt 1.00000 1.00000
vt 0.00000 1.00000
vt 1.00000 0.00000
vt 0.00000 0.00000
vt 1.00000 1.00000
vt 0.00000 1.00000
vt 1.00000 0.00000
vt 0.00000 0.00000
vt 1.00000 1.00000
vt 0.00000 1.00000
vt 1.00000 0.00000
vn 0.00000 -1.00000 -0.00000
vn 0.00000 -1.00000 -0.00000
vn 0.00000 -1.00000 -0.00000
vn 0.00000 -1.00000 -0.00000
vn -1.00000 0.00000 0.00000
vn -1.00000 0.00000 0.00000
vn -1.00000 0.00000 0.00000
vn -1.00000 0.00000 0.00000
vn 0.00000 -0.00000 1.00000
vn 0.00000 -0.00000 1.00000
vn 0.00000 -0.00000 1.00000
vn 0.00000 -0.00000 1.00000
vn 0.00000 0.00000 -1.00000
vn 0.00000 0.00000 -1.00000
vn 0.00000 0.00000 -1.00000
vn 0.00000 0.00000 -1.00000
vn 1.00000 0.00000 0.00000
vn 1.00000 0.00000 0.00000
vn 1.00000 0.00000 0.00000
vn 1.00000 0.00000 0.00000
vn 0.00000 1.00000 0.00000
vn 0.00000 1.00000 0.00000
vn 0.00000 1.00000 0.00000
vn 0.00000 1.00000 0.00000
f 42/106/122 43/107/123 41/105/121 44/108/124 
f 45/110/126 46/111/127 42/109/125 44/112/128 
f 47/114/130 45/115/131 44/113/129 41/116/132 
f 46/118/134 48/119/135 43/117/133 42/120/136 
f 48/122/138 47/123/139 41/121/137 43/124/140 
f 48/126/142 46/127/143 45/125/141 47/128/144 
o 006_Box_2
g Box_2
usemtl Noise Glossy 3
v 1.299 -0.000 0.032
v 0.299 0.000 -99.968
v 1.299 0.000 -99.968
v 0.299 -0.000 0.032
v 0.299 100.000 0.032
v 0.299 100.000 -99.968
v 1.299 100.000 0.032
v 1.299 100.000 -99.968
vt 0.00000 0.00000
vt 1.00000 1.00000
vt 0.00000 1.00000
vt 1.00000 0.00000
vt 0.00000 0.00000
vt 1.00000 1.00000
vt 0.00000 1.00000
vt 1.00000 0.00000
vt 0.00000 0.00000
vt 1.00000 1.00000
vt 0.00000 1.00000
vt 1.00000 0.00000
vt 0.00000 0.00000
vt 1.00000 1.00000
vt 0.00000 1.00000
vt 1.00000 0.00000
vt 0.00000 0.00000
vt 1.00000 1.00000
vt 0.00000 1.00000
vt 1.00000 0.00000
vt 0.00000 0.00000
vt 1.00000 1.00000
vt 0.00000 1.00000
vt 1.00000 0.00000
vn 0.00000 -1.00000 -0.00000
vn 0.00000 -1.00000 -0.00000
vn 0.00000 -1.00000 -0.00000
vn 0.00000 -1.00000 -0.00000
vn -1.00000 0.00000 0.00000
vn -1.00000 0.00000 0.00000
vn -1.00000 0.00000 0.00000
vn -1.00000 0.00000 0.00000
vn 0.00000 -0.00000 1.00000
vn 0.00000 -0.00000 1.00000
vn 0.00000 -0.00000 1.00000
vn 0.00000 -0.00000 1.00000
vn 0.00000 0.00000 -1.00000
vn 0.00000 0.00000 -1.00000
vn 0.00000 0.00000 -1.00000
vn 0.00000 0.00000 -1.00000
vn 1.00000 0.00000 0.00000
vn 1.00000 0.00000 0.00000
vn 1.00000 0.00000 0.00000
vn 1.00000 0.00000 0.00000
vn 0.00000 1.00000 0.00000
vn 0.00000 1.00000 0.00000
vn 0.00000 1.00000 0.00000
vn 0.00000 1.00000 0.00000
f 50/130/146 51/131/147 49/129/145 52/132/148 
f 53/134/150 54/135/151 50/133/149 52/136/152 
f 55/138/154 53/139/155 52/137/153 49/140/156 
f 54/142/158 56/143/159 51/141/157 50/144/160 
f 56/146/162 55/147/163 49/145/161 51/148/164 
f 56/150/166 54/151/167 53/149/165 55/152/168 
o 007_Box_1
g Box_1
usemtl Noise Glossy 4
v 100.346 -0.000 0.166
v 0.348 0.000 -1.018
v 100.348 0.000 -0.834
v 0.346 -0.000 -0.018
v 0.346 100.000 -0.018
v 0.348 100.000 -1.018
v 100.346 100.000 0.166
v 100.348 100.000 -0.834
vt 0.00000 0.00000
vt 1.00000 1.00000
vt 0.00000 1.00000
vt 1.00000 0.00000
vt 0.00000 0.00000
vt 1.00000 1.00000
vt 0.00000 1.00000
vt 1.00000 0.00000
vt 0.00000 0.00000
vt 1.00000 1.00000
vt 0.00000 1.00000
vt 1.00000 0.00000
vt 0.00000 0.00000
vt 1.00000 1.00000
vt 0.00000 1.00000
vt 1.00000 0.00000
vt 0.00000 0.00000
vt 1.00000 1.00000
vt 0.00000 1.00000
vt 1.00000 0.00000
vt 0.00000 0.00000
vt 1.00000 1.00000
vt 0.00000 1.00000
vt 1.00000 0.00000
vn 0.00000 -1.00000 -0.00000
vn 0.00000 -1.00000 -0.00000
vn 0.00000 -1.00000 -0.00000
vn 0.00000 -1.00000 -0.00000
vn -1.00000 0.00000 -0.00184
vn -1.00000 0.00000 -0.00184
vn -1.00000 0.00000 -0.00184
vn -1.00000 0.00000 -0.00184
vn -0.00184 -0.00000 1.00000
vn -0.00184 -0.00000 1.00000
vn -0.00184 -0.00000 1.00000
vn -0.00184 -0.00000 1.00000
vn 0.00184 0.00000 -1.00000
vn 0.00184 0.00000 -1.00000
vn 0.00184 0.00000 -1.00000
vn 0.00184 0.00000 -1.00000
vn 1.00000 -0.00000 0.00184
vn 1.00000 -0.00000 0.00184
vn 1.00000 -0.00000 0.00184
vn 1.00000 -0.00000 0.00184
vn -0.00000 1.00000 0.00000
vn -0.00000 1.00000 0.00000
vn -0.00000 1.00000 0.00000
vn -0.00000 1.00000 0.00000
f 58/154/170 59/155/171 57/153/169 60/156/172 
f 61/158/174 62/159/175 58/157/173 60/160/176 
f 63/162/178 61/163/179 60/161/177 57/164/180 
f 62/166/182 64/167/183 59/165/181 58/168/184 
f 64/170/186 63/171/187 57/169/185 59/172/188 
f 64/174/190 62/175/191 61/173/189 63/176/192 
o 008_Box_9
g Box_9
usemtl Noise Glossy 5
v 100.218 99.000 -0.056
v 0.218 99.000 -100.056
v 100.218 99.000 -100.056
v 0.218 99.000 -0.056
v 0.218 100.000 -0.056
v 0.218 100.000 -100.056
v 100.218 100.000 -0.056
v 100.218 100.000 -100.056
vt 0.00000 0.00000
vt 1.00000 1.00000
vt 0.00000 1.00000
vt 1.00000 0.00000
vt 0.00000 0.00000
vt 1.00000 1.00000
vt 0.00000 1.00000
vt 1.00000 0.00000
vt 0.00000 0.00000
vt 1.00000 1.00000
vt 0.00000 1.00000
vt 1.00000 0.00000
vt 0.00000 0.00000
vt 1.00000 1.00000
vt 0.00000 1.00000
vt 1.00000 0.00000
vt 0.00000 0.00000
vt 1.00000 1.00000
vt 0.00000 1.00000
vt 1.00000 0.00000
vt 0.00000 0.00000
vt 1.00000 1.00000
vt 0.00000 1.00000
vt 1.00000 0.00000
vn 0.00000 -1.00000 -0.00000
vn 0.00000 -1.00000 -0.00000
vn 0.00000 -1.00000 -0.00000
vn 0.00000 -1.00000 -0.00000
vn -1.00000 0.00000 0.00000
vn -1.00000 0.00000 0.00000
vn -1.00000 0.00000 0.00000
vn -1.00000 0.00000 0.00000
vn 0.00000 -0.00000 1.00000
vn 0.00000 -0.00000 1.00000
vn 0.00000 -0.00000 1.00000
vn 0.00000 -0.00000 1.00000
vn 0.00000 0.00000 -1.00000
vn 0.00000 0.00000 -1.00000
vn 0.00000 0.00000 -1.00000
vn 0.00000 0.00000 -1.00000
vn 1.00000 0.00000 0.00000
vn 1.00000 0.00000 0.00000
vn 1.00000 0.00000 0.00000
vn 1.00000 0.00000 0.00000
vn 0.00000 1.00000 0.00000
vn 0.00000 1.00000 0.00000
vn 0.00000 1.00000 0.00000
vn 0.00000 1.00000 0.00000
f 66/178/194 67/179/195 65/177/193 68/180/196 
f 69/182/198 70/183/199 66/181/197 68/184/200 
f 71/186/202 69/187/203 68/185/201 65/188/204 
f 70/190/206 72/191/207 67/189/205 66/192/208 
f 72/194/210 71/195/211 65/193/209 67/196/212 
f 72/198/214 70/199/215 69/197/213 71/200/216 
o 009_Box
g Box
usemtl Concrete 1
v 100.218 -0.000 -0.056
v 0.218 0.000 -100.056
v 100.218 0.000 -100.056
v 0.218 -0.000 -0.056
v 0.218 1.000 -0.056
v 0.218 1.000 -100.056
v 100.218 1.000 -0.056
v 100.218 1.000 -100.056
vt 0.00000 0.00000
vt 1.00000 1.00000
vt 0.00000 1.00000
vt 1.00000 0.00000
vt 0.00000 0.00000
vt 1.00000 1.00000
vt 0.00000 1.00000
vt 1.00000 0.00000
vt 0.00000 0.00000
vt 1.00000 1.00000
vt 0.00000 1.00000
vt 1.00000 0.00000
vt 0.00000 0.00000
vt 1.00000 1.00000
vt 0.00000 1.00000
vt 1.00000 0.00000
vt 0.00000 0.00000
vt 1.00000 1.00000
vt 0.00000 1.00000
vt 1.00000 0.00000
vt 0.00000 0.00000
vt 1.00000 1.00000
vt 0.00000 1.00000
vt 1.00000 0.00000
vn 0.00000 -1.00000 -0.00000
vn 0.00000 -1.00000 -0.00000
vn 0.00000 -1.00000 -0.00000
vn 0.00000 -1.00000 -0.00000
vn -1.00000 0.00000 0.00000
vn -1.00000 0.00000 0.00000
vn -1.00000 0.00000 0.00000
vn -1.00000 0.00000 0.00000
vn 0.00000 -0.00000 1.00000
vn 0.00000 -0.00000 1.00000
vn 0.00000 -0.00000 1.00000
vn 0.00000 -0.00000 1.00000
vn 0.00000 0.00000 -1.00000
vn 0.00000 0.00000 -1.00000
vn 0.00000 0.00000 -1.00000
vn 0.00000 0.00000 -1.00000
vn 1.00000 0.00000 0.00000
vn 1.00000 0.00000 0.00000
vn 1.00000 0.00000 0.00000
vn 1.00000 0.00000 0.00000
vn 0.00000 1.00000 0.00000
vn 0.00000 1.00000 0.00000
vn 0.00000 1.00000 0.00000
vn 0.00000 1.00000 0.00000
f 74/202/218 75/203/219 73/201/217 76/204/220 
f 77/206/222 78/207/223 74/205/221 76/208/224 
f 79/210/226 77/211/227 76/209/225 73/212/228 
f 78/214/230 80/215/231 75/213/229 74/216/232 
f 80/218/234 79/219/235 73/217/233 75/220/236 
f 80/222/238 78/223/239 77/221/237 79/224/240 
